 <svg  version="1.0" xmlns="http://www.w3.org/2000/svg"  width="300.000000pt" height="300.000000pt" viewBox="0 0 300.000000 300.000000"  preserveAspectRatio="xMidYMid meet">  <g transform="translate(0.000000,300.000000) scale(0.100000,-0.100000)" fill="#000000" stroke="none"> <path d="M0 1500 l0 -1500 1500 0 1500 0 0 1500 0 1500 -1500 0 -1500 0 0 -1500z m1630 1253 c197 -54 344 -217 387 -428 14 -68 14 -92 4 -163 -6 -46 -23 -108 -36 -139 -18 -41 -21 -54 -10 -49 20 7 45 -20 45 -50 0 -29 -26 -97 -56 -145 -22 -35 -22 -39 -9 -90 8 -30 20 -97 26 -150 19 -159 -10 -269 -100 -371 l-41 -46 0 -120 c0 -106 -2 -122 -21 -146 -11 -14 -27 -26 -35 -26 -19 0 -18 -41 6 -202 11 -73 20 -145 20 -160 0 -19 5 -28 16 -28 8 0 29 -14 46 -30 28 -28 30 -36 26 -80 -4 -41 -2 -49 11 -48 9 1 57 0 106 -2 l90 -3 -75 -8 c-85 -9 -909 -8 -1070 1 l-105 6 106 2 106 2 -5 50 c-4 44 -2 52 26 80 17 16 36 30 44 30 9 0 19 47 36 168 26 187 27 222 10 222 -6 0 -20 7 -30 17 -16 14 -18 33 -18 143 l0 126 -45 47 c-93 97 -126 218 -105 382 6 51 17 116 25 145 13 50 13 54 -10 89 -26 41 -55 121 -55 151 0 25 27 51 45 44 11 -5 8 9 -10 51 -60 136 -55 295 15 440 47 97 101 160 180 214 141 93 299 119 460 74z m447 -435 c-3 -7 -5 -2 -5 12 0 14 2 19 5 13 2 -7 2 -19 0 -25z m0 -430 c-3 -8 -6 -5 -6 6 -1 11 2 17 5 13 3 -3 4 -12 1 -19z m222 -18 c44 -12 97 -64 112 -108 23 -70 -15 -163 -81 -197 -38 -20 -113 -19 -151 1 -17 8 -46 14 -64 12 -44 -3 -50 4 -32 39 8 16 12 44 9 66 -10 85 29 156 103 182 49 17 61 18 104 5z"/> <path d="M1347 2735 c-90 -25 -160 -67 -233 -139 -106 -106 -154 -220 -154 -366 0 -152 56 -276 173 -386 l69 -63 30 22 30 22 -24 14 c-13 8 -50 42 -84 75 -263 264 -112 704 263 768 236 40 474 -138 515 -385 27 -166 -58 -357 -199 -447 l-42 -27 30 -22 30 -22 39 31 c139 110 210 252 210 422 0 92 -32 203 -80 278 -67 105 -189 193 -313 226 -64 17 -196 17 -260 -1z m183 -17 c0 -5 -36 -8 -80 -8 -55 0 -99 -6 -137 -20 -65 -23 -77 -25 -48 -8 46 27 133 46 197 45 38 -1 68 -5 68 -9z m-295 -68 c3 -5 -3 -10 -14 -10 -20 0 -97 -70 -155 -141 -21 -25 -24 -28 -15 -9 14 29 154 170 168 170 5 0 13 -4 16 -10z m-238 -342 c-3 -8 -6 -5 -6 6 -1 11 2 17 5 13 3 -3 4 -12 1 -19z m915 -300 c-8 -8 -9 -4 -5 13 4 13 8 18 11 10 2 -7 -1 -18 -6 -23z m-22 -37 c-5 -11 -15 -23 -21 -27 -6 -3 -3 5 6 20 20 30 30 35 15 7z m-61 -77 c-18 -20 -47 -45 -64 -57 -16 -11 -3 5 30 36 68 64 86 75 34 21z"/> <path d="M1355 2647 c-164 -55 -282 -194 -305 -360 -23 -158 52 -326 188 -419 l43 -30 52 23 c75 33 210 33 285 0 47 -21 56 -22 79 -10 61 32 133 111 170 187 37 75 38 78 38 191 0 110 -2 120 -32 184 -42 89 -121 168 -210 210 -60 28 -80 32 -168 34 -63 2 -115 -2 -140 -10z m32 -23 c-3 -3 -12 -4 -19 -1 -8 3 -5 6 6 6 11 1 17 -2 13 -5z m126 -161 c-7 -2 -21 -2 -30 0 -10 3 -4 5 12 5 17 0 24 -2 18 -5z m-56 -50 c-3 -10 -5 -4 -5 12 0 17 2 24 5 18 2 -7 2 -21 0 -30z m80 15 c-3 -8 -6 -5 -6 6 -1 11 2 17 5 13 3 -3 4 -12 1 -19z m-404 -3 c-3 -9 -8 -14 -10 -11 -3 3 -2 9 2 15 9 16 15 13 8 -4z m422 -33 c-3 -3 -11 0 -18 7 -9 10 -8 11 6 5 10 -3 15 -9 12 -12z m-116 6 c-2 -2 -17 -14 -34 -28 l-30 -25 24 28 c14 15 29 27 34 27 6 0 8 -1 6 -2z m156 -26 c-3 -3 -11 0 -18 7 -9 10 -8 11 6 5 10 -3 15 -9 12 -12z m-511 -61 c-4 -17 -9 -30 -11 -27 -3 2 -2 19 2 36 9 41 17 33 9 -9z m389 12 c-20 -7 -15 -29 10 -47 22 -16 22 -16 -5 -4 -33 13 -41 59 -10 57 10 0 12 -3 5 -6z m73 -9 c19 -15 19 -15 -1 -6 -11 5 -27 12 -35 15 -13 5 -13 6 1 6 8 1 24 -6 35 -15z m74 12 c0 -2 -7 -7 -16 -10 -8 -3 -12 -2 -9 4 6 10 25 14 25 6z m-85 -76 c3 -6 -1 -7 -9 -4 -18 7 -21 14 -7 14 6 0 13 -4 16 -10z m-55 -56 c0 -2 -13 2 -30 11 -16 9 -30 18 -30 21 0 2 14 -2 30 -11 17 -9 30 -18 30 -21z m58 -48 c-2 -11 -10 -21 -18 -22 -9 0 -10 1 -2 3 6 3 12 10 12 17 0 6 -6 18 -12 25 -11 10 -9 11 5 5 11 -4 17 -15 15 -28z m79 -18 c-2 -13 -4 -5 -4 17 -1 22 1 32 4 23 2 -10 2 -28 0 -40z m-207 29 c0 -2 -10 -12 -22 -23 l-23 -19 19 23 c18 21 26 27 26 19z m-293 -39 c-3 -8 -6 -5 -6 6 -1 11 2 17 5 13 3 -3 4 -12 1 -19z m358 4 c-3 -3 -11 0 -18 7 -9 10 -8 11 6 5 10 -3 15 -9 12 -12z m115 -47 c-6 -8 -20 -17 -30 -20 -12 -4 -20 -18 -23 -38 l-4 -32 -1 32 c-2 25 4 35 31 51 40 25 43 26 27 7z m-131 -53 c-2 -26 -2 -26 -6 -2 -3 13 -12 30 -21 38 -15 11 -14 12 6 2 15 -7 22 -19 21 -38z"/> <path d="M970 1945 c-15 -18 0 -72 40 -144 l30 -54 -19 -96 c-20 -99 -32 -221 -22 -221 22 1 33 23 35 70 1 45 6 56 32 79 36 32 98 163 89 190 -3 11 -17 26 -30 35 -13 9 -51 47 -84 85 -48 56 -62 67 -71 56z m136 -238 c-10 -39 -23 -79 -28 -87 -8 -12 -9 -12 -4 2 3 10 11 53 18 98 8 53 16 76 22 70 7 -7 4 -34 -8 -83z"/> <path d="M1890 1859 c-47 -49 -87 -92 -88 -94 -2 -2 7 -36 19 -77 17 -54 33 -83 61 -110 32 -31 38 -44 38 -79 0 -38 18 -68 42 -69 10 0 -2 115 -23 222 l-19 98 24 38 c44 71 67 163 39 162 -4 0 -46 -41 -93 -91z m42 -49 l-40 -78 14 -58 c7 -33 13 -68 13 -79 0 -20 0 -20 -9 0 -4 11 -15 49 -23 85 -15 64 -15 65 8 90 26 29 49 72 60 115 4 18 10 24 13 16 2 -8 -14 -49 -36 -91z"/> <path d="M1408 1860 c-49 -9 -133 -47 -175 -80 -33 -26 -27 -25 38 4 131 60 330 49 439 -24 47 -32 55 -33 30 -6 -71 79 -219 126 -332 106z"/> <path d="M1363 1795 c-78 -17 -178 -69 -204 -106 -27 -39 -24 -47 9 -17 64 60 176 98 292 98 129 0 239 -41 324 -120 44 -41 47 -42 33 -15 -64 123 -280 200 -454 160z"/> <path d="M1175 1760 c3 -5 8 -10 11 -10 2 0 4 5 4 10 0 6 -5 10 -11 10 -5 0 -7 -4 -4 -10z"/> <path d="M1770 1755 c0 -8 4 -15 10 -15 5 0 7 7 4 15 -4 8 -8 15 -10 15 -2 0 -4 -7 -4 -15z"/> <path d="M1496 1726 c6 -17 -20 -56 -39 -56 -5 0 -28 -15 -51 -32 -22 -18 -47 -37 -54 -43 -28 -21 -98 -93 -138 -140 -36 -44 -43 -48 -58 -36 -25 21 -21 105 10 171 14 30 30 58 37 62 6 4 8 10 4 14 -4 4 -15 0 -25 -9 -10 -10 -26 -17 -34 -17 -10 0 -19 -12 -23 -30 -4 -16 -11 -30 -16 -30 -6 0 -7 -5 -3 -12 4 -7 7 -43 6 -80 -2 -46 2 -77 13 -98 9 -18 11 -30 5 -30 -6 0 -3 -11 7 -25 10 -13 28 -25 40 -25 12 0 25 -4 28 -10 3 -5 13 -10 21 -10 9 0 22 -7 30 -15 28 -28 142 -55 233 -56 66 0 103 5 161 24 41 14 86 27 99 29 14 2 25 11 27 21 1 9 11 25 23 35 11 9 22 33 25 52 2 19 5 35 6 35 1 0 4 12 6 28 3 15 0 27 -5 27 -6 0 -9 6 -6 13 2 6 6 33 9 59 4 38 2 48 -12 53 -9 3 -34 21 -54 40 -47 45 -158 95 -226 102 -46 5 -52 4 -46 -11z m266 -293 c10 -9 18 -22 18 -28 0 -19 -39 -64 -70 -80 -25 -13 -30 -13 -53 5 -32 25 -26 50 20 90 38 34 58 37 85 13z m-598 -89 c3 -8 2 -12 -4 -9 -6 3 -10 10 -10 16 0 14 7 11 14 -7z m460 -7 c27 -19 17 -59 -17 -71 -23 -8 -31 -6 -49 12 -20 19 -20 24 -8 47 15 28 46 33 74 12z"/> <path d="M1686 1401 c-31 -32 -30 -61 2 -61 25 0 76 55 69 74 -10 25 -41 19 -71 -13z"/> <path d="M1564 1315 c-4 -9 -2 -21 4 -27 16 -16 47 -5 47 17 0 26 -42 34 -51 10z"/> <path d="M1396 1719 c-146 -21 -236 -116 -236 -248 0 -43 13 -53 29 -22 35 65 159 181 249 232 29 17 50 35 47 40 -7 10 -6 10 -89 -2z"/> <path d="M1072 1558 c-7 -7 -12 -41 -12 -84 0 -64 3 -76 26 -101 20 -22 24 -24 19 -8 -16 49 -26 130 -20 166 7 42 6 46 -13 27z"/> <path d="M1864 1522 c2 -30 -2 -79 -9 -110 -8 -31 -11 -59 -9 -61 3 -3 13 4 24 15 13 13 21 40 25 89 6 62 5 73 -14 95 l-21 25 4 -53z"/> <path d="M1016 1411 c-16 -18 -17 -26 -7 -67 22 -86 60 -142 139 -206 l47 -37 13 22 c11 19 12 16 6 -30 -6 -50 -5 -53 21 -63 43 -16 62 -12 69 15 9 37 62 48 203 44 126 -4 153 -13 153 -51 0 -18 4 -19 38 -13 51 9 56 16 45 72 l-9 48 -19 -32 c-10 -18 -25 -35 -32 -37 -31 -12 -7 18 72 91 47 43 97 97 111 121 14 24 28 41 31 38 12 -12 -61 -118 -103 -148 -44 -32 -50 -43 -36 -66 6 -9 19 -4 52 21 59 48 106 109 130 173 25 67 25 93 3 110 -27 20 -33 17 -33 -14 0 -30 -36 -72 -61 -72 -9 0 -33 -25 -54 -56 -46 -67 -130 -129 -204 -150 -82 -25 -212 -16 -282 19 -71 35 -125 81 -159 134 -15 24 -43 54 -61 66 -19 13 -39 37 -45 55 -10 32 -10 33 -28 13z"/> <path d="M1175 1276 c9 -14 40 -43 69 -65 137 -106 317 -108 456 -6 56 41 68 65 17 35 -131 -78 -396 -62 -512 30 -46 36 -50 37 -30 6z m305 -116 c-8 -5 -31 -9 -50 -9 l-35 2 35 7 c19 4 42 8 50 9 13 1 13 0 0 -9z"/> <path d="M1793 1093 c-24 -16 -30 -47 -13 -58 6 -3 10 -24 10 -45 0 -21 -4 -42 -10 -45 -12 -8 -13 -95 -1 -95 22 0 29 33 33 143 1 64 3 117 3 116 0 0 -10 -7 -22 -16z"/> <path d="M1150 987 c0 -107 7 -137 32 -137 12 0 10 98 -2 102 -18 6 -23 64 -6 81 22 21 20 44 -4 57 -19 10 -20 8 -20 -103z"/> <path d="M1370 1063 c-43 -8 -50 -21 -50 -93 0 -42 5 -71 13 -78 6 -5 45 -13 85 -17 l73 -7 -3 43 c-3 39 -6 43 -38 54 -33 11 -35 15 -38 58 -2 26 -6 46 -10 46 -4 -1 -18 -4 -32 -6z m96 -150 c-3 -4 -34 -8 -69 -9 l-62 -3 65 12 c66 13 79 13 66 0z"/> <path d="M1430 1033 c0 -38 2 -40 40 -52 40 -12 40 -12 40 -62 l0 -50 53 6 c28 4 58 8 65 10 15 5 17 161 2 170 -6 4 -53 9 -105 12 l-95 6 0 -40z m160 -8 c23 -28 -9 -72 -45 -59 -36 14 -24 74 15 74 10 0 23 -7 30 -15z"/> <path d="M1542 1003 c2 -10 10 -18 18 -18 8 0 16 8 18 18 2 12 -3 17 -18 17 -15 0 -20 -5 -18 -17z"/> <path d="M1190 990 c0 -17 5 -30 13 -30 6 -1 31 -5 55 -9 42 -8 43 -8 40 17 -2 21 -11 27 -53 38 -27 7 -51 13 -52 14 -2 0 -3 -13 -3 -30z"/> <path d="M1710 1005 c-35 -9 -44 -16 -44 -33 0 -26 1 -26 59 -17 42 6 45 8 45 36 0 16 -3 28 -7 28 -5 -1 -28 -7 -53 -14z"/> <path d="M1206 796 c-3 -77 -7 -156 -9 -175 -2 -30 3 -37 31 -54 39 -23 118 -26 175 -8 31 11 37 17 37 41 0 16 2 35 6 43 3 9 -6 19 -25 27 -46 19 -37 30 11 13 31 -10 52 -12 87 -4 55 12 67 5 23 -11 -21 -8 -30 -18 -27 -26 3 -8 5 -26 5 -42 0 -22 6 -30 31 -39 48 -17 139 -13 179 7 32 15 35 20 33 57 -1 22 -6 101 -10 175 l-8 136 -42 -9 c-32 -6 -43 -13 -43 -26 0 -36 -28 -45 -148 -49 -141 -5 -199 7 -208 43 -6 24 -12 27 -75 39 -14 3 -17 -15 -23 -138z m458 21 c24 -24 28 -43 41 -187 4 -43 3 -60 -4 -51 -5 8 -12 51 -16 95 -4 45 -13 96 -21 114 -13 33 -17 34 -89 34 l-40 0 35 8 c58 13 70 11 94 -13z m-292 -178 c-5 -93 -22 -98 -19 -6 1 46 6 75 12 73 6 -2 9 -30 7 -67z"/> <path d="M1465 618 c-3 -18 -14 -95 -24 -170 -11 -76 -22 -142 -26 -148 -4 -6 19 -10 65 -10 39 0 69 4 66 9 -3 5 -15 71 -26 147 -27 191 -30 204 -40 204 -5 0 -12 -15 -15 -32z"/> <path d="M1180 551 c0 -10 -3 -39 -6 -65 -6 -44 -6 -46 19 -46 13 0 35 -9 48 -19 l24 -20 -46 15 c-41 14 -50 14 -83 0 -43 -18 -66 -57 -46 -81 10 -12 38 -15 144 -15 162 0 170 4 179 89 4 33 10 79 13 101 7 42 7 42 -17 29 -40 -21 -149 -17 -192 9 -35 20 -37 20 -37 3z m174 -79 c-7 -43 -34 -109 -50 -122 -18 -16 -18 -12 6 34 10 21 22 58 26 82 3 24 10 42 14 39 5 -3 7 -18 4 -33z"/> <path d="M1741 546 c-41 -24 -151 -28 -190 -7 -24 13 -24 13 -17 -29 3 -22 9 -68 13 -101 9 -85 17 -89 179 -89 148 0 167 8 145 56 -21 47 -101 61 -162 30 -8 -4 -3 2 10 13 13 12 34 21 47 21 26 0 28 11 16 86 l-7 40 -34 -20z m-11 -84 c0 -13 -4 -20 -10 -17 -5 3 -10 21 -10 38 0 24 3 28 10 17 5 -8 10 -25 10 -38z m110 -98 c0 -35 -15 -30 -16 6 -1 16 3 27 7 24 5 -3 9 -16 9 -30z"/> <path d="M1097 293 c11 -9 58 -13 143 -13 85 0 132 4 143 13 14 10 -12 12 -143 12 -131 0 -157 -2 -143 -12z"/> <path d="M1577 293 c11 -9 58 -13 143 -13 85 0 132 4 143 13 14 10 -12 12 -143 12 -131 0 -157 -2 -143 -12z"/> <path d="M2193 1840 c-62 -28 -85 -70 -79 -145 2 -32 0 -67 -5 -77 -8 -16 -5 -18 23 -18 18 0 42 -7 52 -15 29 -22 105 -19 144 5 43 27 76 99 67 146 -8 46 -58 101 -103 114 -48 13 -50 13 -99 -10z m77 -45 c0 -8 7 -15 15 -15 9 0 12 -6 8 -16 -4 -11 -13 -14 -29 -10 -34 9 -30 -11 6 -29 33 -17 42 -61 15 -71 -8 -4 -15 -12 -15 -20 0 -8 -7 -14 -15 -14 -8 0 -15 4 -15 9 0 5 -9 11 -21 14 -30 8 -18 33 15 29 31 -3 37 23 7 31 -10 2 -24 14 -30 26 -9 17 -8 24 9 41 11 11 20 25 20 30 0 6 7 10 15 10 8 0 15 -7 15 -15z"/> </g> </svg> 